<svg width="96" height="96" viewBox="0 0 96 96" fill="none" xmlns="http://www.w3.org/2000/svg" role="img" aria-labelledby="title desc">
  <title id="title">CareConnect mark</title>
  <desc id="desc">A soft violet and pink healthcare heart mark with green care accent.</desc>
  <rect width="96" height="96" rx="24" fill="#F1EAFF"/>
  <path d="M49.8 72.4C48.7 73.2 47.3 73.2 46.2 72.4C31.4 62.2 20 53 20 40.3C20 31.9 26.5 25.5 34.7 25.5C39.4 25.5 43.9 27.7 46.9 31.1C49.9 27.7 54.4 25.5 59.1 25.5C67.4 25.5 74 31.9 74 40.3C74 53 64.6 62.2 49.8 72.4Z" fill="url(#paint0_linear)"/>
  <path d="M47.8 57.8C46.7 57.8 45.8 56.9 45.8 55.8V50.2H40.2C39.1 50.2 38.2 49.3 38.2 48.2V43.9C38.2 42.8 39.1 41.9 40.2 41.9H45.8V36.3C45.8 35.2 46.7 34.3 47.8 34.3H52.2C53.3 34.3 54.2 35.2 54.2 36.3V41.9H59.8C60.9 41.9 61.8 42.8 61.8 43.9V48.2C61.8 49.3 60.9 50.2 59.8 50.2H54.2V55.8C54.2 56.9 53.3 57.8 52.2 57.8H47.8Z" fill="white"/>
  <circle cx="68" cy="25" r="9" fill="#28C99A"/>
  <defs>
    <linearGradient id="paint0_linear" x1="20" y1="25.5" x2="78" y2="66" gradientUnits="userSpaceOnUse">
      <stop stop-color="#8B5CF6"/>
      <stop offset="0.58" stop-color="#FF5CA8"/>
      <stop offset="1" stop-color="#28C99A"/>
    </linearGradient>
  </defs>
</svg>
